<?xml version="1.0" encoding="UTF-8" standalone="no"?>
<!DOCTYPE svg PUBLIC "-//W3C//DTD SVG 1.1//EN" "http://www.w3.org/Graphics/SVG/1.1/DTD/svg11.dtd">
<svg xmlns="http://www.w3.org/2000/svg" version="1.1" viewBox="0.00 0.00 245.00 245.00">
<path fill="#f1afa3" d="
  M 187.23 191.09
  C 186.47 192.16 186.01 193.43 185.34 194.54
  Q 185.08 194.98 185.16 195.29
  Q 185.24 195.56 185.44 195.83
  Q 185.73 196.22 185.40 196.56
  L 177.29 204.88
  Q 176.97 205.21 177.01 205.66
  C 177.95 215.39 175.96 226.20 169.68 233.68
  C 166.31 237.70 159.63 239.31 154.51 240.34
  Q 151.53 240.94 147.11 242.28
  C 139.43 244.61 129.63 245.67 122.19 241.82
  Q 121.71 241.57 121.63 241.03
  Q 121.53 240.28 120.84 239.89
  Q 120.44 239.66 120.00 239.80
  Q 112.90 242.06 105.49 240.80
  C 99.46 239.77 93.61 238.90 88.73 235.51
  Q 82.21 230.98 77.28 224.84
  C 74.84 221.80 73.94 218.99 73.74 215.25
  Q 73.70 214.53 73.73 214.49
  Q 74.55 213.36 73.20 213.71
  Q 65.72 215.66 57.99 214.92
  Q 55.22 214.66 49.61 211.13
  Q 44.74 208.07 43.02 204.70
  Q 40.79 200.34 38.57 195.96
  Q 35.42 189.77 38.60 183.86
  A 0.40 0.40 0.0 0 0 38.29 183.28
  Q 32.89 182.75 28.26 179.92
  A 2.89 2.88 7.3 0 1 27.01 178.31
  C 26.16 175.55 23.91 173.57 23.11 171.10
  C 21.81 167.11 21.58 162.19 25.17 159.45
  Q 33.73 152.91 42.18 146.20
  Q 44.26 144.54 45.88 143.91
  A 1.85 1.85 0.0 0 0 46.78 141.22
  C 44.73 137.90 43.54 134.51 41.25 131.36
  C 37.93 126.78 37.57 115.45 37.80 110.75
  Q 37.99 106.83 39.34 101.92
  Q 40.16 98.90 40.44 95.44
  Q 41.10 87.13 44.66 79.62
  C 46.70 75.32 49.85 71.37 52.96 67.53
  Q 53.78 66.53 53.86 65.29
  A 1.42 1.41 29.9 0 0 53.62 64.41
  Q 47.61 55.63 55.90 49.15
  Q 60.72 45.39 67.90 40.95
  Q 68.33 40.69 67.92 40.39
  Q 62.04 36.14 60.05 34.91
  C 58.79 34.14 56.92 33.96 55.67 32.93
  C 49.93 28.22 55.74 20.96 60.23 18.27
  Q 61.62 17.43 63.01 16.54
  Q 63.44 16.28 63.55 15.79
  Q 64.68 11.10 68.34 8.05
  Q 68.94 7.55 69.88 7.30
  Q 71.19 6.94 71.52 6.66
  C 77.32 1.81 84.01 3.94 87.31 10.57
  Q 88.36 12.67 89.76 14.57
  Q 94.61 21.15 94.96 29.37
  A 0.81 0.81 0.0 0 0 96.33 29.92
  C 97.46 28.81 98.23 27.72 99.82 27.23
  Q 106.04 25.31 109.50 25.45
  C 117.40 25.78 126.38 26.46 133.59 29.94
  C 138.23 32.19 143.61 34.47 147.17 38.33
  C 152.67 44.29 157.52 49.12 162.48 56.69
  C 163.06 57.59 164.04 58.24 164.48 59.00
  Q 165.41 60.57 168.10 66.02
  Q 168.32 66.47 168.68 66.11
  Q 179.68 55.12 193.34 47.61
  Q 195.62 46.35 203.38 43.58
  C 208.77 41.65 213.09 41.13 218.49 41.61
  C 222.81 42.00 223.51 46.51 222.63 49.94
  Q 222.50 50.41 222.15 50.76
  Q 221.84 51.08 221.82 51.56
  Q 221.80 52.08 221.46 52.47
  C 218.09 56.30 214.90 60.64 211.16 63.73
  Q 207.66 66.62 203.83 69.06
  Q 202.70 69.78 198.27 71.66
  Q 194.36 73.32 190.32 76.76
  Q 185.00 81.30 176.12 83.21
  Q 175.24 83.40 175.87 82.87
  Q 175.97 82.79 176.05 82.69
  A 0.08 0.05 22.8 0 0 175.99 82.60
  L 175.49 82.45
  Q 175.22 82.36 175.28 82.64
  C 177.59 94.23 175.28 102.59 171.02 113.13
  Q 170.12 115.36 168.88 117.46
  Q 164.30 125.19 158.79 132.31
  Q 156.32 135.50 153.03 137.50
  A 0.56 0.56 0.0 0 0 152.90 138.35
  Q 155.46 141.26 158.04 143.75
  C 158.81 144.49 159.79 144.43 160.51 145.07
  Q 170.97 154.34 181.71 163.29
  Q 184.08 165.27 186.94 170.10
  Q 187.20 170.53 187.13 171.02
  C 186.97 172.17 187.70 172.81 187.93 173.68
  C 189.35 178.97 190.63 186.29 187.23 191.09
  Z
  M 72.72 22.99
  A 0.66 0.66 0.0 0 0 72.80 23.86
  L 77.70 28.57
  Q 78.10 28.97 77.95 28.42
  Q 76.86 24.48 74.77 21.01
  Q 74.48 20.52 74.14 20.98
  L 72.72 22.99
  Z"
/>
</svg>
